<svg width="43" height="43" viewBox="0 0 43 43" fill="none" xmlns="http://www.w3.org/2000/svg">
<path d="M14.7866 20.8855L5.9178 12.0167C5.74668 11.8515 5.61019 11.6538 5.51629 11.4352C5.42239 11.2166 5.37296 10.9815 5.37089 10.7436C5.36883 10.5057 5.41416 10.2697 5.50425 10.0495C5.59433 9.82936 5.72737 9.62931 5.8956 9.46109C6.06382 9.29286 6.26387 9.15982 6.48406 9.06974C6.70425 8.97965 6.94018 8.93432 7.17807 8.93638C7.41597 8.93845 7.65108 8.98788 7.86967 9.08178C8.08826 9.17568 8.28596 9.31217 8.45124 9.48329L18.5868 19.6188C18.9227 19.9548 19.1114 20.4105 19.1114 20.8855C19.1114 21.3606 18.9227 21.8163 18.5868 22.1523L8.45124 32.2878C8.28596 32.4589 8.08826 32.5954 7.86967 32.6893C7.65108 32.7832 7.41597 32.8326 7.17807 32.8347C6.94018 32.8368 6.70425 32.7915 6.48406 32.7014C6.26387 32.6113 6.06382 32.4782 5.8956 32.31C5.72737 32.1418 5.59433 31.9417 5.50425 31.7216C5.41416 31.5014 5.36883 31.2654 5.37089 31.0275C5.37296 30.7896 5.42239 30.5545 5.51629 30.3359C5.61019 30.1173 5.74668 29.9196 5.9178 29.7544L14.7866 20.8855ZM21.518 28.6668H35.8514C36.3266 28.6668 36.7823 28.8556 37.1183 29.1916C37.4543 29.5276 37.6431 29.9833 37.6431 30.4585C37.6431 30.9337 37.4543 31.3894 37.1183 31.7254C36.7823 32.0614 36.3266 32.2502 35.8514 32.2502H21.518C21.0428 32.2502 20.5871 32.0614 20.2511 31.7254C19.9151 31.3894 19.7263 30.9337 19.7263 30.4585C19.7263 29.9833 19.9151 29.5276 20.2511 29.1916C20.5871 28.8556 21.0428 28.6668 21.518 28.6668Z" fill="#CBD5E1"/>
</svg>
