<svg width="369" height="426" viewBox="0 0 369 426" fill="none" xmlns="http://www.w3.org/2000/svg">
<path d="M243.27 257.324C248.996 265.132 255.469 271.77 261.894 277.31C262.507 277.839 263.119 278.358 263.731 278.866C275.522 288.677 286.888 294.791 292.87 297.656C303.225 302.614 308.439 297.726 299.309 280.769C292.264 267.681 282.373 253.874 272.064 242.392C271.677 241.958 271.286 241.527 270.891 241.101C270.236 240.389 269.574 239.685 268.905 238.991C260.664 230.425 251.572 223.353 242.966 220.122C240.582 219.217 238.304 219.116 236.385 219.83C231.583 221.642 230.066 228.386 232.667 236.401C234.977 243.523 238.619 250.983 243.27 257.324Z" fill="url(#paint0_linear_510_2684)"/>
<path opacity="0.1" d="M261.859 277.331C262.474 277.852 263.087 278.364 263.701 278.865C269.583 268.848 272.154 256.202 271.374 241.066C270.72 240.362 270.058 239.667 269.389 238.982C269.941 247.59 269.408 255.421 267.797 262.347C266.488 267.912 264.492 272.948 261.859 277.331Z" fill="#131E2E"/>
<path d="M249.39 253.561C249.39 264.086 247.822 274.877 244.963 285.274C211.117 315.551 158.128 314.483 118.017 285.242C115.16 274.857 113.598 264.074 113.598 253.561C113.598 207.201 143.995 199.6 181.494 199.6C218.993 199.6 249.39 207.201 249.39 253.561Z" fill="url(#paint1_linear_510_2684)"/>
<path d="M244.482 285.633C234.815 320.979 210.262 351.753 181.494 351.753C152.726 351.753 128.161 320.966 118.506 285.601C119.974 285.539 121.438 285.406 122.898 285.201C134.049 283.599 144.305 278.052 151.895 269.517C156.754 264.018 160.362 257.429 165.426 252.127C165.467 252.082 165.509 252.039 165.552 251.997C174.033 243.213 187.894 243.213 196.376 251.997L196.502 252.127C201.563 257.429 205.172 264.018 210.031 269.517C217.622 278.052 227.878 283.599 239.029 285.201C240.837 285.454 242.658 285.598 244.482 285.633Z" fill="url(#paint2_linear_510_2684)"/>
<path d="M183.669 283.038C197.21 283.038 208.187 272.05 208.187 258.497C208.187 244.943 197.21 233.956 183.669 233.956C170.127 233.956 159.15 244.943 159.15 258.497C159.15 272.05 170.127 283.038 183.669 283.038Z" fill="url(#paint3_linear_510_2684)"/>
<path d="M183.668 278.124C194.498 278.124 203.278 269.336 203.278 258.496C203.278 247.657 194.498 238.869 183.668 238.869C172.839 238.869 164.059 247.657 164.059 258.496C164.059 269.336 172.839 278.124 183.668 278.124Z" fill="url(#paint4_radial_510_2684)"/>
<path opacity="0.1" d="M203.278 258.497C203.278 259.125 203.249 259.748 203.188 260.361C202.727 255.498 200.471 250.983 196.862 247.696C193.252 244.41 188.548 242.589 183.668 242.589C178.788 242.589 174.084 244.41 170.474 247.696C166.865 250.983 164.609 255.498 164.148 260.361C164.087 259.748 164.058 259.125 164.058 258.497C164.109 253.325 166.198 248.383 169.87 244.744C173.542 241.106 178.501 239.064 183.668 239.064C188.835 239.064 193.794 241.106 197.466 244.744C201.138 248.383 203.227 253.325 203.278 258.497Z" fill="#131E2E"/>
<path d="M35.1994 141.117C15.7585 141.117 0 124.55 0 104.081C0 83.6118 15.7585 67.0449 35.1994 67.0449V141.117Z" fill="url(#paint5_linear_510_2684)"/>
<path d="M333.801 141.117C353.242 141.117 369 124.536 369 104.081C369 83.6255 353.244 67.0449 333.801 67.0449V141.117Z" fill="url(#paint6_linear_510_2684)"/>
<path d="M343.212 111.343C343.212 188.769 272.118 208.162 184.423 208.162C96.7284 208.162 25.6348 188.769 25.6348 111.343V96.83C25.6348 19.3983 96.7284 0 184.423 0C272.118 0 343.212 19.3983 343.212 96.819V111.343Z" fill="url(#paint7_linear_510_2684)"/>
<path d="M310.781 120.168C310.781 163.113 254.242 173.87 184.502 173.87C114.763 173.87 58.2212 163.122 58.2212 120.168V112.12C58.2212 69.1751 114.76 58.4189 184.502 58.4189C254.244 58.4189 310.781 69.1751 310.781 112.12V120.168Z" fill="url(#paint8_linear_510_2684)"/>
<path opacity="0.76" d="M310.778 112.12V120.168C310.778 120.647 310.778 121.124 310.756 121.595C309.52 79.8327 253.465 69.3175 184.502 69.3175C115.54 69.3175 59.4742 79.8327 58.2458 121.595C58.2294 121.124 58.2212 120.647 58.2212 120.168V112.12C58.2212 69.1751 114.757 58.4189 184.502 58.4189C254.247 58.4189 310.778 69.1751 310.778 112.12Z" fill="#070115"/>
<path d="M255.249 5.84359C247.67 13.1577 242.664 23.0321 240.319 35.7406C239.951 37.6881 238.914 39.4453 237.388 40.7076C235.861 41.97 233.941 42.6579 231.961 42.6522H136.885C134.905 42.6586 132.984 41.9709 131.457 40.7085C129.93 39.4461 128.892 37.6885 128.524 35.7406C126.191 23.0321 121.176 13.1577 113.598 5.84907C134.918 1.63204 158.972 0 184.423 0C209.875 0 233.942 1.63204 255.249 5.84359Z" fill="url(#paint9_radial_510_2684)"/>
<path d="M255.249 5.84375C247.67 13.1578 242.664 23.0322 240.319 35.7408C239.951 37.6882 238.914 39.4454 237.388 40.7078C235.861 41.9701 233.941 42.6581 231.961 42.6523H136.885C134.905 42.6587 132.984 41.9711 131.457 40.7087C129.93 39.4463 128.892 37.6887 128.524 35.7408C126.191 23.0322 121.176 13.1578 113.598 5.84923C123.822 11.9283 129.791 17.0928 131.98 29.0182C132.326 30.8459 133.301 32.4947 134.734 33.6786C136.168 34.8625 137.97 35.5068 139.829 35.4998H229.017C230.875 35.5061 232.677 34.8614 234.109 33.6775C235.542 32.4936 236.516 30.8453 236.861 29.0182C239.055 17.0928 245.255 9.08593 255.249 5.84375Z" fill="url(#paint10_linear_510_2684)"/>
<rect x="200.238" y="129.249" width="19.6327" height="29.449" rx="8" fill="#D9D9D9"/>
<rect x="157.701" y="129.249" width="19.6327" height="29.449" rx="8" fill="#D9D9D9"/>
<path d="M286.231 206.617H273.782V238.432C278.931 235.324 283.213 230.967 286.231 225.764V206.617ZM175.94 272.358C175.375 272.931 175.058 273.702 175.058 274.506C175.058 275.31 175.375 276.082 175.94 276.654L186.35 287.065C186.923 287.63 187.694 287.946 188.498 287.946C189.302 287.946 190.074 287.63 190.646 287.065L216.418 261.292C216.433 261.278 216.447 261.264 216.461 261.25C216.582 261.129 216.631 260.977 216.722 260.849C227.879 268.995 241.336 273.382 255.15 273.378C291.334 273.378 320.667 244.044 320.667 207.854C320.667 171.665 291.334 142.337 255.144 142.337C218.954 142.337 189.627 171.671 189.627 207.86C189.627 222.233 194.31 235.483 202.161 246.283C202.009 246.386 201.846 246.452 201.712 246.586L175.94 272.358ZM206.444 207.854C206.46 198.244 209.323 188.853 214.672 180.868C220.021 172.884 227.617 166.663 236.499 162.993C245.381 159.322 255.152 158.366 264.577 160.245C274.002 162.123 282.66 166.753 289.456 173.549C296.251 180.345 300.881 189.002 302.76 198.427C304.639 207.853 303.682 217.623 300.012 226.505C296.341 235.388 290.121 242.983 282.136 248.332C274.151 253.681 264.761 256.544 255.15 256.56H255.004C248.618 256.551 242.296 255.283 236.399 252.83C230.502 250.377 225.146 246.787 220.637 242.264C216.128 237.742 212.554 232.375 210.118 226.471C207.683 220.567 206.435 214.241 206.444 207.854ZM235.93 238.068C230.753 234.765 226.496 230.207 223.553 224.818V214.115H235.93V238.068ZM263.231 243.819C260.55 244.165 257.85 244.305 255.15 244.256C252.723 244.408 250.297 244.408 247.87 244.256V189.004H263.225V243.819H263.231Z" fill="url(#paint11_radial_510_2684)"/>
<path d="M134.096 255.306C143.763 255.886 152.853 257.744 160.996 260.165C161.774 260.396 162.542 260.632 163.302 260.873C177.947 265.512 189.258 271.822 194.915 275.337C204.706 281.423 203.439 288.547 184.243 290.101C169.428 291.302 152.462 290.477 137.22 288.017C136.645 287.927 136.071 287.83 135.498 287.728C134.544 287.563 133.594 287.386 132.647 287.198C120.978 284.896 110.099 281.047 102.708 275.501C100.651 273.969 99.328 272.086 98.8842 270.061C97.794 264.979 102.629 259.98 110.77 257.786C118.004 255.836 126.245 254.835 134.096 255.306Z" fill="url(#paint12_linear_510_2684)"/>
<path opacity="0.1" d="M160.996 260.124C161.768 260.36 162.531 260.601 163.284 260.848C158.076 271.36 148.86 280.5 135.733 288.159C134.786 287.989 133.843 287.808 132.904 287.615C140.429 283.352 146.712 278.594 151.648 273.415C155.607 269.241 158.749 264.774 160.996 260.124Z" fill="#131E2E"/>
<path opacity="0.63" d="M177.334 425.57C236.061 425.57 283.669 416.521 283.669 405.358C283.669 394.195 236.061 385.146 177.334 385.146C118.608 385.146 71 394.195 71 405.358C71 416.521 118.608 425.57 177.334 425.57Z" fill="url(#paint13_radial_510_2684)"/>
<defs>
<linearGradient id="paint0_linear_510_2684" x1="276.456" y1="255.069" x2="254.595" y2="267.809" gradientUnits="userSpaceOnUse">
<stop stop-color="#E6E6E6"/>
<stop offset="1" stop-color="#A5B0B5"/>
</linearGradient>
<linearGradient id="paint1_linear_510_2684" x1="181.494" y1="272.532" x2="181.494" y2="215.294" gradientUnits="userSpaceOnUse">
<stop stop-color="#E6E6E6"/>
<stop offset="1" stop-color="#A5B0B5"/>
</linearGradient>
<linearGradient id="paint2_linear_510_2684" x1="181.494" y1="319.065" x2="181.494" y2="251.604" gradientUnits="userSpaceOnUse">
<stop stop-color="#E6E6E6"/>
<stop offset="1" stop-color="#A5B0B5"/>
</linearGradient>
<linearGradient id="paint3_linear_510_2684" x1="166.884" y1="242.666" x2="200.498" y2="274.313" gradientUnits="userSpaceOnUse">
<stop stop-color="#E6E6E6"/>
<stop offset="0.2" stop-color="#A5B0B5"/>
<stop offset="0.37" stop-color="#CCD1D3"/>
<stop offset="0.57" stop-color="#B5BEC2"/>
<stop offset="0.74" stop-color="white"/>
<stop offset="1" stop-color="#A5B0B5"/>
</linearGradient>
<radialGradient id="paint4_radial_510_2684" cx="0" cy="0" r="1" gradientUnits="userSpaceOnUse" gradientTransform="translate(183.668 266.854) scale(23.1422 26.9488)">
<stop stop-color="#DACEFF"/>
<stop offset="1" stop-color="#3700D4"/>
</radialGradient>
<linearGradient id="paint5_linear_510_2684" x1="0" y1="104.081" x2="35.1994" y2="104.081" gradientUnits="userSpaceOnUse">
<stop stop-color="#E6E6E6"/>
<stop offset="1" stop-color="#A5B0B5"/>
</linearGradient>
<linearGradient id="paint6_linear_510_2684" x1="333.804" y1="104.081" x2="369.003" y2="104.081" gradientUnits="userSpaceOnUse">
<stop stop-color="#E6E6E6"/>
<stop offset="1" stop-color="#A5B0B5"/>
</linearGradient>
<linearGradient id="paint7_linear_510_2684" x1="25.6348" y1="104.081" x2="343.212" y2="104.081" gradientUnits="userSpaceOnUse">
<stop stop-color="#E6E6E6"/>
<stop offset="1" stop-color="#A5B0B5"/>
</linearGradient>
<linearGradient id="paint8_linear_510_2684" x1="184.502" y1="71.4452" x2="184.502" y2="166.865" gradientUnits="userSpaceOnUse">
<stop stop-color="#303259"/>
<stop offset="1" stop-color="#1A132E"/>
</linearGradient>
<radialGradient id="paint9_radial_510_2684" cx="0" cy="0" r="1" gradientUnits="userSpaceOnUse" gradientTransform="translate(184.423 30.4077) scale(83.5855 29.2815)">
<stop stop-color="#DACEFF"/>
<stop offset="1" stop-color="#3700D4"/>
</radialGradient>
<linearGradient id="paint10_linear_510_2684" x1="184.423" y1="8.91889" x2="184.423" y2="42.0225" gradientUnits="userSpaceOnUse">
<stop stop-color="#5792AD" stop-opacity="0"/>
<stop offset="1" stop-color="#3400A4"/>
</linearGradient>
<radialGradient id="paint11_radial_510_2684" cx="0" cy="0" r="1" gradientUnits="userSpaceOnUse" gradientTransform="translate(248.223 213.756) rotate(-89.1602) scale(73.7683 72.1169)">
<stop stop-color="#5599FF"/>
<stop offset="0.836794" stop-color="#7241FF"/>
<stop offset="1" stop-color="#8E66FF"/>
</radialGradient>
<linearGradient id="paint12_linear_510_2684" x1="150.248" y1="284.785" x2="149.054" y2="259.178" gradientUnits="userSpaceOnUse">
<stop stop-color="#E6E6E6"/>
<stop offset="1" stop-color="#A5B0B5"/>
</linearGradient>
<radialGradient id="paint13_radial_510_2684" cx="0" cy="0" r="1" gradientUnits="userSpaceOnUse" gradientTransform="translate(177.334 404.772) scale(101.549 16.8917)">
<stop offset="0.0625" stop-color="#5A20FE"/>
<stop offset="0.380208" stop-color="#A585FE"/>
<stop offset="0.567708" stop-color="#D8CAFF"/>
<stop offset="1" stop-color="white" stop-opacity="0.2"/>
</radialGradient>
</defs>
</svg>
