<svg width="449" height="547" viewBox="0 0 449 547" fill="none" xmlns="http://www.w3.org/2000/svg">
<path d="M133.437 334.372C123.749 330.924 115.026 326.342 107.436 321.467C106.711 321.001 105.997 320.534 105.293 320.063C91.7273 311.004 82.0551 301.225 77.3245 295.968C69.136 286.868 72.534 279.976 92.5714 284.064C108.037 287.217 125.097 293.072 139.917 300.085C140.477 300.348 141.034 300.615 141.588 300.888C142.512 301.339 143.429 301.8 144.339 302.272C155.561 308.069 165.519 315.208 171.419 323.05C173.063 325.22 173.857 327.531 173.711 329.728C173.321 335.234 166.912 338.904 157.96 338.735C150.007 338.586 141.305 337.172 133.437 334.372Z" fill="url(#paint0_linear_510_1470)"/>
<path opacity="0.1" d="M107.424 321.508C106.707 321.04 106 320.568 105.304 320.094C113.723 310.911 125.824 304.312 141.476 300.38C142.391 300.833 143.3 301.297 144.201 301.771C135.266 303.895 127.451 306.892 120.886 310.715C115.615 313.802 111.09 317.43 107.424 321.508Z" fill="#131E2E"/>
<path d="M347.258 351.707C353.338 359.998 360.212 367.046 367.034 372.93C367.685 373.492 368.335 374.043 368.985 374.583C381.506 385 393.575 391.493 399.927 394.535C410.923 399.799 416.459 394.609 406.764 376.603C399.284 362.705 388.781 348.044 377.834 335.851C377.423 335.389 377.007 334.933 376.588 334.48C375.892 333.723 375.189 332.977 374.479 332.239C365.728 323.144 356.074 315.634 346.935 312.203C344.403 311.242 341.984 311.134 339.946 311.893C334.847 313.817 333.236 320.978 335.998 329.489C338.451 337.052 342.319 344.973 347.258 351.707Z" fill="url(#paint1_linear_510_1470)"/>
<path opacity="0.1" d="M366.997 372.952C367.65 373.506 368.301 374.049 368.953 374.581C375.199 363.945 377.929 350.515 377.101 334.443C376.406 333.696 375.703 332.958 374.993 332.229C375.579 341.371 375.014 349.686 373.302 357.04C371.912 362.95 369.793 368.298 366.997 372.952Z" fill="#131E2E"/>
<path d="M327.723 359.035C327.723 370.21 326.058 381.67 323.022 392.71C287.081 424.861 230.813 423.727 188.219 392.677C185.186 381.648 183.527 370.198 183.527 359.035C183.527 309.806 215.806 301.734 255.625 301.734C295.444 301.734 327.723 309.806 327.723 359.035Z" fill="url(#paint2_linear_510_1470)"/>
<path d="M322.512 393.09C312.246 430.625 286.173 463.303 255.625 463.303C225.077 463.303 198.991 430.611 188.739 393.057C190.297 392.991 191.852 392.85 193.403 392.632C205.244 390.931 216.135 385.04 224.195 375.978C229.354 370.138 233.185 363.141 238.563 357.511C238.606 357.463 238.651 357.417 238.696 357.373C247.702 348.046 262.421 348.046 271.429 357.373L271.561 357.511C276.936 363.141 280.769 370.138 285.929 375.978C293.989 385.04 304.879 390.931 316.72 392.632C318.64 392.901 320.574 393.054 322.512 393.09Z" fill="url(#paint3_linear_510_1470)"/>
<path d="M257.934 390.336C272.314 390.336 283.97 378.668 283.97 364.276C283.97 349.884 272.314 338.216 257.934 338.216C243.555 338.216 231.898 349.884 231.898 364.276C231.898 378.668 243.555 390.336 257.934 390.336Z" fill="url(#paint4_linear_510_1470)"/>
<path d="M257.934 385.118C269.435 385.118 278.757 375.786 278.757 364.276C278.757 352.765 269.435 343.434 257.934 343.434C246.434 343.434 237.111 352.765 237.111 364.276C237.111 375.786 246.434 385.118 257.934 385.118Z" fill="url(#paint5_radial_510_1470)"/>
<path opacity="0.1" d="M278.757 364.275C278.757 364.943 278.726 365.604 278.661 366.254C278.172 361.091 275.777 356.296 271.944 352.806C268.111 349.316 263.115 347.382 257.933 347.382C252.752 347.382 247.756 349.316 243.923 352.806C240.09 356.296 237.695 361.091 237.206 366.254C237.141 365.604 237.109 364.943 237.109 364.275C237.164 358.784 239.383 353.535 243.282 349.672C247.181 345.808 252.446 343.64 257.933 343.64C263.42 343.64 268.686 345.808 272.585 349.672C276.484 353.535 278.702 358.784 278.757 364.275Z" fill="#131E2E"/>
<path d="M94.1501 224.252C73.5061 224.252 56.7724 206.66 56.7724 184.924C56.7724 163.189 73.5061 145.596 94.1501 145.596V224.252Z" fill="url(#paint6_linear_510_1470)"/>
<path d="M411.231 224.252C431.875 224.252 448.609 206.646 448.609 184.924C448.609 163.203 431.878 145.596 411.231 145.596V224.252Z" fill="url(#paint7_linear_510_1470)"/>
<path d="M421.224 192.635C421.224 274.853 345.73 295.446 252.608 295.446C159.486 295.446 83.9929 274.853 83.9929 192.635V177.223C83.9929 94.9996 159.486 74.4008 252.608 74.4008C345.73 74.4008 421.224 94.9996 421.224 177.212V192.635Z" fill="url(#paint8_linear_510_1470)"/>
<path d="M386.786 202.007C386.786 247.61 326.748 259.032 252.693 259.032C178.638 259.032 118.597 247.619 118.597 202.007V193.461C118.597 147.858 178.635 136.436 252.693 136.436C326.751 136.436 386.786 147.858 386.786 193.461V202.007Z" fill="url(#paint9_linear_510_1470)"/>
<path d="M238.631 203.298C238.741 203.723 238.737 204.17 238.617 204.593C238.498 205.015 238.267 205.4 237.949 205.709C237.631 206.018 237.237 206.239 236.804 206.352C236.372 206.465 235.917 206.464 235.485 206.351C226.78 204.11 217.633 204.11 208.928 206.351C208.496 206.465 208.041 206.465 207.609 206.353C207.176 206.24 206.781 206.019 206.463 205.71C206.145 205.401 205.914 205.016 205.795 204.593C205.675 204.17 205.67 203.724 205.781 203.298C206.718 199.722 208.84 196.554 211.814 194.291C214.787 192.029 218.443 190.801 222.206 190.801C225.969 190.801 229.625 192.029 232.598 194.291C235.572 196.554 237.694 199.722 238.631 203.298Z" fill="#D9D9D9"/>
<path d="M266.587 203.298C266.476 203.724 266.481 204.17 266.601 204.593C266.72 205.016 266.951 205.401 267.269 205.71C267.587 206.019 267.982 206.24 268.415 206.353C268.847 206.465 269.302 206.465 269.734 206.351C278.439 204.11 287.586 204.11 296.291 206.351C296.723 206.464 297.178 206.465 297.61 206.352C298.043 206.239 298.437 206.018 298.755 205.709C299.073 205.4 299.303 205.015 299.423 204.593C299.543 204.17 299.547 203.723 299.437 203.298C298.5 199.722 296.378 196.554 293.404 194.291C290.43 192.029 286.775 190.801 283.012 190.801C279.249 190.801 275.593 192.029 272.62 194.291C269.646 196.554 267.524 199.722 266.587 203.298Z" fill="#D9D9D9"/>
<path opacity="0.76" d="M386.784 193.461V202.007C386.784 202.516 386.784 203.022 386.76 203.522C385.447 159.175 325.923 148.009 252.693 148.009C179.463 148.009 119.927 159.175 118.623 203.522C118.605 203.022 118.597 202.516 118.597 202.007V193.461C118.597 147.858 178.632 136.436 252.693 136.436C326.754 136.436 386.784 147.858 386.784 193.461Z" fill="#070115"/>
<path d="M327.818 80.606C319.77 88.3728 314.454 98.8583 311.964 112.353C311.573 114.421 310.472 116.287 308.851 117.628C307.23 118.968 305.192 119.699 303.089 119.693H202.129C200.026 119.699 197.986 118.969 196.365 117.629C194.743 116.288 193.641 114.422 193.251 112.353C190.772 98.8583 185.447 88.3728 177.4 80.6119C200.04 76.1339 225.582 74.4008 252.609 74.4008C279.635 74.4008 305.192 76.1339 327.818 80.606Z" fill="url(#paint10_radial_510_1470)"/>
<path d="M327.818 80.607C319.77 88.3737 314.454 98.8592 311.964 112.354C311.573 114.422 310.472 116.288 308.851 117.629C307.23 118.969 305.192 119.7 303.089 119.694H202.129C200.026 119.7 197.986 118.97 196.365 117.63C194.743 116.289 193.641 114.423 193.251 112.354C190.772 98.8592 185.447 88.3737 177.4 80.6128C188.257 87.0681 194.596 92.5522 196.92 105.216C197.288 107.156 198.322 108.907 199.845 110.164C201.367 111.422 203.281 112.106 205.255 112.098H299.963C301.936 112.105 303.849 111.42 305.37 110.163C306.891 108.906 307.925 107.156 308.292 105.216C310.622 92.5522 317.205 84.0498 327.818 80.607Z" fill="url(#paint11_linear_510_1470)"/>
<path opacity="0.63" d="M254.732 547C313.479 547 361.102 537.947 361.102 526.781C361.102 515.614 313.479 506.562 254.732 506.562C195.986 506.562 148.363 515.614 148.363 526.781C148.363 537.947 195.986 547 254.732 547Z" fill="url(#paint12_radial_510_1470)"/>
<path d="M261.207 25.0092L257.796 28.4206L266.514 37.1385C267.073 34.8758 267.053 32.5085 266.454 30.2559L261.207 25.0092ZM249 73.2455C249.002 73.557 249.127 73.8552 249.347 74.0755C249.567 74.2958 249.865 74.4205 250.177 74.4225H255.883C256.194 74.4205 256.492 74.2958 256.713 74.0755C256.933 73.8552 257.058 73.557 257.06 73.2455L257.06 59.1212C257.06 59.1135 257.06 59.1057 257.06 59.098C257.06 59.0315 257.031 58.9766 257.021 58.9168C262.311 58.0916 267.2 55.6062 270.984 51.8197C280.899 41.9048 280.899 25.8288 270.983 15.9122C261.066 5.99562 244.992 5.99728 235.075 15.9139C225.159 25.8304 225.16 41.9048 235.077 51.8214C239.015 55.7597 243.929 58.1071 249.04 58.9151C249.027 58.9849 249 59.0481 249 59.1212L249 73.2455ZM239.684 47.2114C237.054 44.5736 235.266 41.2158 234.544 37.5621C233.821 33.9085 234.198 30.1227 235.626 26.683C237.054 23.2433 239.47 20.3039 242.567 18.236C245.665 16.1681 249.305 15.0645 253.03 15.0645C256.754 15.0645 260.395 16.1681 263.493 18.236C266.59 20.3039 269.005 23.2433 270.433 26.683C271.861 30.1227 272.238 33.9085 271.516 37.5621C270.794 41.2158 269.005 44.5736 266.376 47.2114L266.336 47.2513C264.583 48.9987 262.504 50.3838 260.216 51.3275C257.928 52.2712 255.476 52.755 253.002 52.7513C250.527 52.7475 248.077 52.2564 245.792 51.3059C243.506 50.3553 241.431 48.964 239.684 47.2114ZM256.042 47.4109C253.719 47.9244 251.303 47.8421 249.02 47.1715L246.087 44.2389L249.479 40.8475L256.042 47.4109ZM265.099 41.5058C264.459 42.3354 263.758 43.1134 263.005 43.8399C262.381 44.5464 261.716 45.2114 261.01 45.8348L245.87 30.6948L250.077 26.4871L265.098 41.5075L265.099 41.5058Z" fill="url(#paint13_radial_510_1470)"/>
<path d="M73.4727 17.5126C73.5051 17.0133 73.5097 16.5122 73.4866 16.0093C73.5226 15.4546 73.5622 14.8443 73.6054 14.1786C73.7205 12.4033 73.8983 10.5207 74.1388 8.5307C74.3793 6.54071 74.6 4.85585 74.8009 3.47611L89.5972 4.68648C89.3084 6.56192 88.9757 8.6852 88.5991 11.0563C88.2779 13.4311 88.0069 15.8926 87.7859 18.441L73.4727 17.5126ZM69.2754 77.0737C69.332 73.6233 69.4586 69.9546 69.655 66.0676C69.8549 62.1251 70.0827 58.1844 70.3382 54.2455C70.6728 49.0861 71.0539 44.069 71.4815 39.1942C71.9091 34.3194 72.3356 29.8902 72.7611 25.9067L87.0797 26.7518C86.6923 29.2893 86.3485 32.4426 86.0483 36.2114C85.7518 39.9248 85.4704 43.8341 85.2041 47.9395C84.9414 51.9893 84.7101 55.9855 84.5101 59.928C84.3101 63.8705 84.1335 67.4524 83.9803 70.6736C83.8861 73.843 83.811 76.2894 83.755 78.0128L69.2754 77.0737Z" fill="url(#paint14_linear_510_1470)"/>
<path d="M0.362071 72.7709C0.0642749 69.6318 -0.0498509 65.8082 0.0196947 61.3001C0.0892405 56.7921 0.293129 51.9306 0.631361 46.7157C0.980387 41.3344 1.42162 35.8198 1.95507 30.1719C2.544 24.5276 3.14627 19.107 3.76189 13.9102C4.43659 8.66141 5.09944 4.02471 5.75045 4.72511e-05L20.2138 1.18883C19.3517 5.03266 18.5718 9.32751 17.874 14.0734C17.2353 18.7674 16.6394 23.6591 16.0865 28.7486C20.0614 28.4493 24.3601 28.3103 28.9827 28.3316C33.6053 28.3528 38.0525 28.502 42.3243 28.7791C44.3769 28.9122 46.3428 29.0954 48.2218 29.3287C48.4362 25.1643 48.6048 21.2755 48.7278 17.6623C48.8507 14.0491 48.9099 10.9888 48.9054 8.48153C48.9009 5.97426 48.8183 4.24186 48.6575 3.28436L63.03 3.29732C63.2271 7.9898 63.2538 13.5905 63.1102 20.0993C63.0221 26.6117 62.7423 33.5017 62.271 40.7692C61.8896 46.6498 61.39 52.6342 60.7723 58.7223C60.1582 64.755 59.392 70.5549 58.4738 76.1221L44.5768 75.2208C44.9138 73.4599 45.2368 71.0574 45.5456 68.0134C45.8581 64.9138 46.168 61.4241 46.4753 57.5443C46.7863 53.609 47.0803 49.5055 47.3573 45.2338C47.4077 44.4571 47.4599 43.6527 47.5139 42.8205C46.4598 42.7521 45.378 42.682 44.2684 42.61C43.218 42.4862 42.138 42.3883 41.0284 42.3163C36.6457 42.032 32.1967 41.9106 27.6815 41.952C23.2253 41.9415 18.9543 42.0824 14.8685 42.3745C14.7533 44.1497 14.6382 45.925 14.523 47.7003C14.2064 52.5823 13.9373 57.161 13.7157 61.4363C13.5496 65.7153 13.4641 69.6095 13.4594 73.119L0.362071 72.7709Z" fill="url(#paint15_linear_510_1470)"/>
<defs>
<linearGradient id="paint0_linear_510_1470" x1="125.674" y1="299.532" x2="119.325" y2="326.002" gradientUnits="userSpaceOnUse">
<stop stop-color="#E6E6E6"/>
<stop offset="1" stop-color="#A5B0B5"/>
</linearGradient>
<linearGradient id="paint1_linear_510_1470" x1="382.497" y1="349.312" x2="359.283" y2="362.84" gradientUnits="userSpaceOnUse">
<stop stop-color="#E6E6E6"/>
<stop offset="1" stop-color="#A5B0B5"/>
</linearGradient>
<linearGradient id="paint2_linear_510_1470" x1="255.625" y1="379.18" x2="255.625" y2="318.399" gradientUnits="userSpaceOnUse">
<stop stop-color="#E6E6E6"/>
<stop offset="1" stop-color="#A5B0B5"/>
</linearGradient>
<linearGradient id="paint3_linear_510_1470" x1="255.625" y1="428.592" x2="255.625" y2="356.956" gradientUnits="userSpaceOnUse">
<stop stop-color="#E6E6E6"/>
<stop offset="1" stop-color="#A5B0B5"/>
</linearGradient>
<linearGradient id="paint4_linear_510_1470" x1="240.111" y1="347.466" x2="275.805" y2="381.071" gradientUnits="userSpaceOnUse">
<stop stop-color="#E6E6E6"/>
<stop offset="0.2" stop-color="#A5B0B5"/>
<stop offset="0.37" stop-color="#CCD1D3"/>
<stop offset="0.57" stop-color="#B5BEC2"/>
<stop offset="0.74" stop-color="white"/>
<stop offset="1" stop-color="#A5B0B5"/>
</linearGradient>
<radialGradient id="paint5_radial_510_1470" cx="0" cy="0" r="1" gradientUnits="userSpaceOnUse" gradientTransform="translate(257.934 373.151) scale(24.5744 28.6166)">
<stop stop-color="#DACEFF"/>
<stop offset="1" stop-color="#3700D4"/>
</radialGradient>
<linearGradient id="paint6_linear_510_1470" x1="56.7724" y1="184.924" x2="94.1501" y2="184.924" gradientUnits="userSpaceOnUse">
<stop stop-color="#E6E6E6"/>
<stop offset="1" stop-color="#A5B0B5"/>
</linearGradient>
<linearGradient id="paint7_linear_510_1470" x1="411.234" y1="184.924" x2="448.612" y2="184.924" gradientUnits="userSpaceOnUse">
<stop stop-color="#E6E6E6"/>
<stop offset="1" stop-color="#A5B0B5"/>
</linearGradient>
<linearGradient id="paint8_linear_510_1470" x1="83.9929" y1="184.923" x2="421.224" y2="184.923" gradientUnits="userSpaceOnUse">
<stop stop-color="#E6E6E6"/>
<stop offset="1" stop-color="#A5B0B5"/>
</linearGradient>
<linearGradient id="paint9_linear_510_1470" x1="252.693" y1="150.269" x2="252.693" y2="251.594" gradientUnits="userSpaceOnUse">
<stop stop-color="#303259"/>
<stop offset="1" stop-color="#1A132E"/>
</linearGradient>
<radialGradient id="paint10_radial_510_1470" cx="0" cy="0" r="1" gradientUnits="userSpaceOnUse" gradientTransform="translate(252.609 106.69) scale(88.7584 31.0936)">
<stop stop-color="#DACEFF"/>
<stop offset="1" stop-color="#3700D4"/>
</radialGradient>
<linearGradient id="paint11_linear_510_1470" x1="252.609" y1="83.8724" x2="252.609" y2="119.025" gradientUnits="userSpaceOnUse">
<stop stop-color="#5792AD" stop-opacity="0"/>
<stop offset="1" stop-color="#3400A4"/>
</linearGradient>
<radialGradient id="paint12_radial_510_1470" cx="0" cy="0" r="1" gradientUnits="userSpaceOnUse" gradientTransform="translate(254.732 526.194) scale(101.583 16.8974)">
<stop offset="0.0625" stop-color="#5A20FE"/>
<stop offset="0.380208" stop-color="#A585FE"/>
<stop offset="0.567708" stop-color="#D8CAFF"/>
<stop offset="1" stop-color="white" stop-opacity="0.2"/>
</radialGradient>
<radialGradient id="paint13_radial_510_1470" cx="0" cy="0" r="1" gradientUnits="userSpaceOnUse" gradientTransform="translate(261.525 46.3543) rotate(135) scale(33.2961 38.7377)">
<stop stop-color="#DACEFF"/>
<stop offset="1" stop-color="#3700D4"/>
</radialGradient>
<linearGradient id="paint14_linear_510_1470" x1="76.9412" y1="77.3525" x2="68.7365" y2="4.15972" gradientUnits="userSpaceOnUse">
<stop stop-color="#5599FF"/>
<stop offset="0.836794" stop-color="#7241FF"/>
<stop offset="1" stop-color="#8E66FF"/>
</linearGradient>
<linearGradient id="paint15_linear_510_1470" x1="29.7621" y1="74.4605" x2="31.1274" y2="0.163655" gradientUnits="userSpaceOnUse">
<stop stop-color="#5599FF"/>
<stop offset="0.836794" stop-color="#7241FF"/>
<stop offset="1" stop-color="#8E66FF"/>
</linearGradient>
</defs>
</svg>
