<svg width="134" height="162" viewBox="0 0 134 162" fill="none" xmlns="http://www.w3.org/2000/svg">
<path d="M88.3426 93.4454C90.422 96.2808 92.7726 98.6914 95.1056 100.703C95.3282 100.895 95.5507 101.084 95.7729 101.269C100.055 104.831 104.182 107.051 106.354 108.092C110.115 109.892 112.008 108.117 108.693 101.96C106.135 97.2066 102.543 92.1928 98.7989 88.023C98.6584 87.8653 98.5163 87.709 98.3728 87.5542C98.135 87.2956 97.8946 87.0402 97.6515 86.788C94.659 83.6774 91.3574 81.1092 88.2323 79.9359C87.3663 79.6072 86.539 79.5705 85.8423 79.8299C84.0985 80.4878 83.5474 82.9369 84.4919 85.8476C85.3308 88.4337 86.6536 91.1427 88.3426 93.4454Z" fill="url(#paint0_linear_582_1336)"/>
<path opacity="0.1" d="M95.0935 100.711C95.3166 100.901 95.5395 101.086 95.7622 101.268C97.8984 97.6308 98.8318 93.0382 98.5487 87.5418C98.311 87.2862 98.0707 87.0339 97.8277 86.7848C98.0283 89.911 97.8349 92.7547 97.2497 95.2697C96.7742 97.2907 96.0496 99.1195 95.0935 100.711Z" fill="#131E2E"/>
<path d="M90.5644 92.0793C90.5644 95.9012 89.9948 99.82 88.9566 103.596C76.6655 114.591 57.4229 114.203 42.8567 103.584C41.8195 99.8127 41.252 95.897 41.252 92.0793C41.252 75.2439 52.2907 72.4834 65.9082 72.4834C79.5256 72.4834 90.5644 75.2439 90.5644 92.0793Z" fill="url(#paint1_linear_582_1336)"/>
<path d="M88.7824 103.726C85.2716 116.562 76.3554 127.737 65.9085 127.737C55.4616 127.737 46.5408 116.557 43.0347 103.715C43.5677 103.692 44.0994 103.644 44.6297 103.569C48.6791 102.987 52.4035 100.973 55.1598 97.8738C56.9244 95.8767 58.2345 93.4839 60.0736 91.5585C60.0884 91.5423 60.1038 91.5266 60.1191 91.5114C63.1989 88.3217 68.2327 88.3217 71.313 91.5114L71.3584 91.5585C73.1965 93.4839 74.5071 95.8767 76.2717 97.8738C79.028 100.973 82.7524 102.987 86.8018 103.569C87.4584 103.661 88.1198 103.714 88.7824 103.726Z" fill="url(#paint2_linear_582_1336)"/>
<path d="M66.6982 102.784C71.6157 102.784 75.6021 98.7937 75.6021 93.8718C75.6021 88.9499 71.6157 84.96 66.6982 84.96C61.7808 84.96 57.7944 88.9499 57.7944 93.8718C57.7944 98.7937 61.7808 102.784 66.6982 102.784Z" fill="url(#paint3_linear_582_1336)"/>
<path d="M66.6982 100.999C70.631 100.999 73.8192 97.8076 73.8192 93.8712C73.8192 89.9347 70.631 86.7437 66.6982 86.7437C62.7653 86.7437 59.5771 89.9347 59.5771 93.8712C59.5771 97.8076 62.7653 100.999 66.6982 100.999Z" fill="url(#paint4_radial_582_1336)"/>
<path opacity="0.1" d="M73.8195 93.8717C73.8195 94.1 73.8087 94.3261 73.7866 94.5486C73.6193 92.7829 72.8002 91.143 71.4893 89.9495C70.1785 88.7561 68.4701 88.0947 66.6981 88.0947C64.926 88.0947 63.2177 88.7561 61.9068 89.9495C60.596 91.143 59.7769 92.7829 59.6095 94.5486C59.5874 94.3261 59.5767 94.1 59.5767 93.8717C59.5955 91.9937 60.354 90.1989 61.6875 88.8776C63.021 87.5562 64.8216 86.8149 66.6981 86.8149C68.5745 86.8149 70.3751 87.5562 71.7086 88.8776C73.0421 90.1989 73.8007 91.9937 73.8195 93.8717Z" fill="#131E2E"/>
<path d="M12.7825 51.2454C5.7226 51.2454 0 45.2293 0 37.7961C0 30.3629 5.7226 24.3467 12.7825 24.3467V51.2454Z" fill="url(#paint5_linear_582_1336)"/>
<path d="M121.218 51.2454C128.278 51.2454 134 45.2243 134 37.7961C134 30.3678 128.279 24.3467 121.218 24.3467V51.2454Z" fill="url(#paint6_linear_582_1336)"/>
<path d="M124.635 40.4337C124.635 68.5506 98.8182 75.593 66.9723 75.593C35.1264 75.593 9.30908 68.5506 9.30908 40.4337V35.1633C9.30908 7.04439 35.1264 0 66.9723 0C98.8182 0 124.635 7.04439 124.635 35.1593V40.4337Z" fill="url(#paint7_linear_582_1336)"/>
<path d="M112.858 43.6383C112.858 59.2336 92.3264 63.1396 67.0009 63.1396C41.6754 63.1396 21.1426 59.2366 21.1426 43.6383V40.7157C21.1426 25.1204 41.6744 21.2144 67.0009 21.2144C92.3274 21.2144 112.858 25.1204 112.858 40.7157V43.6383Z" fill="url(#paint8_linear_582_1336)"/>
<path opacity="0.76" d="M112.857 40.7157V43.6383C112.857 43.8123 112.857 43.9853 112.849 44.1564C112.4 28.9906 92.0443 25.1721 67.0009 25.1721C41.9576 25.1721 21.5976 28.9906 21.1515 44.1564C21.1456 43.9853 21.1426 43.8123 21.1426 43.6383V40.7157C21.1426 25.1204 41.6734 21.2144 67.0009 21.2144C92.3284 21.2144 112.857 25.1204 112.857 40.7157Z" fill="#070115"/>
<path d="M92.6918 2.12207C89.9398 4.77813 88.1217 8.36397 87.2702 12.979C87.1366 13.6862 86.76 14.3243 86.2056 14.7828C85.6513 15.2412 84.9541 15.491 84.2351 15.4889H49.7087C48.9894 15.4912 48.2921 15.2415 47.7375 14.7831C47.1829 14.3246 46.8062 13.6864 46.6725 12.979C45.8251 8.36397 44.004 4.77813 41.252 2.12406C48.9944 0.592668 57.7293 0 66.9719 0C76.2145 0 84.9544 0.592667 92.6918 2.12207Z" fill="url(#paint9_radial_582_1336)"/>
<path d="M92.6918 2.12158C89.9398 4.77765 88.1217 8.36348 87.2702 12.9785C87.1366 13.6857 86.76 14.3239 86.2056 14.7823C85.6513 15.2407 84.9541 15.4905 84.2351 15.4884H49.7087C48.9894 15.4907 48.2921 15.241 47.7375 14.7826C47.1829 14.3242 46.8062 13.6859 46.6725 12.9785C45.8251 8.36348 44.004 4.77765 41.252 2.12357C44.9647 4.33116 47.1325 6.20661 47.9273 10.5373C48.0531 11.201 48.407 11.7997 48.9276 12.2297C49.4482 12.6596 50.1028 12.8936 50.7777 12.891H83.166C83.8407 12.8933 84.4949 12.6592 85.0151 12.2293C85.5354 11.7993 85.8889 11.2007 86.0144 10.5373C86.8112 6.20661 89.0625 3.29896 92.6918 2.12158Z" fill="url(#paint10_linear_582_1336)"/>
<path opacity="0.63" d="M67.7905 161.266C85.2145 161.266 99.3394 158.681 99.3394 155.493C99.3394 152.304 85.2145 149.719 67.7905 149.719C50.3666 149.719 36.2417 152.304 36.2417 155.493C36.2417 158.681 50.3666 161.266 67.7905 161.266Z" fill="url(#paint11_radial_582_1336)"/>
<rect x="57.2681" y="46.936" width="7.12951" height="10.6943" rx="3.56475" fill="#D9D9D9"/>
<rect x="72.7153" y="46.936" width="7.12951" height="10.6943" rx="3.56475" fill="#D9D9D9"/>
<rect x="57.2681" y="46.936" width="7.12951" height="10.6943" rx="3.56475" fill="#D9D9D9"/>
<rect x="72.7153" y="46.936" width="7.12951" height="10.6943" rx="3.56475" fill="#D9D9D9"/>
<path d="M103.943 75.0323H99.4225V86.5858C101.292 85.4572 102.847 83.8749 103.943 81.9856V75.0323ZM63.8916 98.9061C63.6865 99.1139 63.5715 99.3941 63.5715 99.686C63.5715 99.978 63.6865 100.258 63.8916 100.466L67.6722 104.247C67.88 104.452 68.1602 104.567 68.4522 104.567C68.7441 104.567 69.0243 104.452 69.2321 104.247L78.5913 94.8875C78.5965 94.8824 78.6017 94.8773 78.6067 94.872C78.6507 94.828 78.6684 94.7729 78.7014 94.7266C82.753 97.6846 87.64 99.2779 92.6564 99.2762C105.796 99.2762 116.449 88.6238 116.449 75.4817C116.449 62.3397 105.796 51.6895 92.6542 51.6895C79.5122 51.6895 68.862 62.3419 68.862 75.4839C68.862 80.7033 70.5628 85.5151 73.4138 89.4368C73.3587 89.4742 73.2992 89.4985 73.2507 89.5469L63.8916 98.9061ZM74.9692 75.4817C74.9749 71.9916 76.0146 68.5815 77.9572 65.6819C79.8997 62.7824 82.6579 60.5235 85.8834 59.1905C89.1089 57.8575 92.6571 57.5102 96.0798 58.1925C99.5026 58.8748 102.646 60.556 105.114 63.0239C107.582 65.4918 109.263 68.6356 109.946 72.0584C110.628 75.4811 110.281 79.0293 108.948 82.2548C107.615 85.4803 105.356 88.2385 102.456 90.181C99.5567 92.1236 96.1465 93.1633 92.6564 93.169H92.6036C90.2843 93.1655 87.9885 92.7053 85.8471 91.8145C83.7057 90.9238 81.7607 89.62 80.1232 87.9776C78.4857 86.3351 77.1878 84.3863 76.3034 82.2422C75.4191 80.0982 74.9657 77.801 74.9692 75.4817ZM85.6767 86.4536C83.7968 85.2543 82.2507 83.5991 81.1822 81.6419V77.7554H85.6767V86.4536ZM95.5911 88.5423C94.6173 88.6678 93.6369 88.7185 92.6564 88.7009C91.7752 88.756 90.8939 88.756 90.0126 88.7009V68.6364H95.5889V88.5423H95.5911Z" fill="url(#paint12_radial_582_1336)"/>
<path d="M48.6965 92.7133C52.2069 92.9238 55.5082 93.5987 58.4653 94.4777C58.7476 94.5616 59.0267 94.6473 59.3025 94.7348C64.6208 96.4196 68.7285 98.7112 70.7826 99.9876C74.3383 102.197 73.8781 104.784 66.9073 105.349C61.5272 105.785 55.3662 105.485 49.8309 104.592C49.6221 104.559 49.4137 104.524 49.2058 104.487C48.8594 104.427 48.5143 104.363 48.1705 104.295C43.9327 103.459 39.9821 102.061 37.298 100.047C36.5513 99.4908 36.0707 98.807 35.9096 98.0715C35.5137 96.2259 37.2695 94.4105 40.226 93.6139C42.8526 92.9059 45.8455 92.5422 48.6965 92.7133Z" fill="url(#paint13_linear_582_1336)"/>
<path opacity="0.1" d="M58.4652 94.4634C58.7454 94.5491 59.0224 94.6367 59.2961 94.7262C57.4049 98.5438 54.0579 101.863 49.2908 104.644C48.9471 104.582 48.6046 104.517 48.2635 104.447C50.9963 102.899 53.2779 101.171 55.0705 99.2899C56.5082 97.7741 57.6491 96.1521 58.4652 94.4634Z" fill="#131E2E"/>
<defs>
<linearGradient id="paint0_linear_582_1336" x1="100.394" y1="92.6266" x2="92.4551" y2="97.253" gradientUnits="userSpaceOnUse">
<stop stop-color="#E6E6E6"/>
<stop offset="1" stop-color="#A5B0B5"/>
</linearGradient>
<linearGradient id="paint1_linear_582_1336" x1="65.9082" y1="98.9686" x2="65.9082" y2="78.1828" gradientUnits="userSpaceOnUse">
<stop stop-color="#E6E6E6"/>
<stop offset="1" stop-color="#A5B0B5"/>
</linearGradient>
<linearGradient id="paint2_linear_582_1336" x1="65.9085" y1="115.867" x2="65.9085" y2="91.3689" gradientUnits="userSpaceOnUse">
<stop stop-color="#E6E6E6"/>
<stop offset="1" stop-color="#A5B0B5"/>
</linearGradient>
<linearGradient id="paint3_linear_582_1336" x1="60.603" y1="88.1231" x2="72.8096" y2="99.6153" gradientUnits="userSpaceOnUse">
<stop stop-color="#E6E6E6"/>
<stop offset="0.2" stop-color="#A5B0B5"/>
<stop offset="0.37" stop-color="#CCD1D3"/>
<stop offset="0.57" stop-color="#B5BEC2"/>
<stop offset="0.74" stop-color="white"/>
<stop offset="1" stop-color="#A5B0B5"/>
</linearGradient>
<radialGradient id="paint4_radial_582_1336" cx="0" cy="0" r="1" gradientUnits="userSpaceOnUse" gradientTransform="translate(66.6982 96.9064) scale(8.40398 9.78631)">
<stop stop-color="#DACEFF"/>
<stop offset="1" stop-color="#3700D4"/>
</radialGradient>
<linearGradient id="paint5_linear_582_1336" x1="0" y1="37.7961" x2="12.7825" y2="37.7961" gradientUnits="userSpaceOnUse">
<stop stop-color="#E6E6E6"/>
<stop offset="1" stop-color="#A5B0B5"/>
</linearGradient>
<linearGradient id="paint6_linear_582_1336" x1="121.219" y1="37.7961" x2="134.001" y2="37.7961" gradientUnits="userSpaceOnUse">
<stop stop-color="#E6E6E6"/>
<stop offset="1" stop-color="#A5B0B5"/>
</linearGradient>
<linearGradient id="paint7_linear_582_1336" x1="9.30908" y1="37.7965" x2="124.635" y2="37.7965" gradientUnits="userSpaceOnUse">
<stop stop-color="#E6E6E6"/>
<stop offset="1" stop-color="#A5B0B5"/>
</linearGradient>
<linearGradient id="paint8_linear_582_1336" x1="67.0009" y1="25.9448" x2="67.0009" y2="60.5959" gradientUnits="userSpaceOnUse">
<stop stop-color="#303259"/>
<stop offset="1" stop-color="#1A132E"/>
</linearGradient>
<radialGradient id="paint9_radial_582_1336" cx="0" cy="0" r="1" gradientUnits="userSpaceOnUse" gradientTransform="translate(66.9719 11.0424) scale(30.3536 10.6334)">
<stop stop-color="#DACEFF"/>
<stop offset="1" stop-color="#3700D4"/>
</radialGradient>
<linearGradient id="paint10_linear_582_1336" x1="66.9719" y1="3.2383" x2="66.9719" y2="15.2597" gradientUnits="userSpaceOnUse">
<stop stop-color="#5792AD" stop-opacity="0"/>
<stop offset="1" stop-color="#3400A4"/>
</linearGradient>
<radialGradient id="paint11_radial_582_1336" cx="0" cy="0" r="1" gradientUnits="userSpaceOnUse" gradientTransform="translate(67.7905 155.325) scale(30.1291 4.82503)">
<stop stop-color="#28007E"/>
<stop offset="0.92" stop-color="#7241FF" stop-opacity="0"/>
</radialGradient>
<radialGradient id="paint12_radial_582_1336" cx="0" cy="0" r="1" gradientUnits="userSpaceOnUse" gradientTransform="translate(90.141 77.6248) rotate(-89.1602) scale(26.7886 26.1889)">
<stop stop-color="#5599FF"/>
<stop offset="0.836794" stop-color="#7241FF"/>
<stop offset="1" stop-color="#8E66FF"/>
</radialGradient>
<linearGradient id="paint13_linear_582_1336" x1="54.5619" y1="103.418" x2="54.1283" y2="94.1194" gradientUnits="userSpaceOnUse">
<stop stop-color="#E6E6E6"/>
<stop offset="1" stop-color="#A5B0B5"/>
</linearGradient>
</defs>
</svg>
