<svg width="251" height="282" viewBox="0 0 251 282" fill="none" xmlns="http://www.w3.org/2000/svg">
<path fill-rule="evenodd" clip-rule="evenodd" d="M15.8216 164.316C15.8128 197.755 28.4535 230.879 54.3188 253.69C79.4193 275.826 114.616 283.853 148.865 281.649C180.81 279.593 211.361 265.935 231.357 242.296C249.573 220.76 253.534 191.409 248.114 164.316C243.555 141.528 220.203 129.431 205.119 111.14C185.81 87.7236 179.308 51.2603 148.865 43.9595C115.264 35.9017 79.4105 52.3308 54.366 74.987C28.8157 98.1009 15.8304 130.886 15.8216 164.316Z" fill="url(#paint0_linear_505_11165)"/>
<path d="M146.646 155.117C150.097 159.823 153.999 163.825 157.872 167.164C158.241 167.483 158.611 167.796 158.98 168.103C166.087 174.017 172.939 177.702 176.544 179.429C182.786 182.418 185.929 179.471 180.426 169.25C176.179 161.36 170.217 153.037 164.003 146.115C163.769 145.854 163.534 145.594 163.295 145.337C162.901 144.908 162.501 144.484 162.098 144.065C157.131 138.902 151.65 134.639 146.462 132.691C145.025 132.146 143.652 132.085 142.495 132.515C139.6 133.607 138.686 137.673 140.254 142.504C141.646 146.797 143.842 151.294 146.646 155.117Z" fill="url(#paint1_linear_505_11165)"/>
<path opacity="0.1" d="M157.852 167.178C158.222 167.492 158.592 167.8 158.961 168.102C162.508 162.064 164.057 154.441 163.587 145.317C163.193 144.893 162.794 144.474 162.39 144.06C162.723 149.25 162.402 153.97 161.431 158.145C160.641 161.5 159.439 164.536 157.852 167.178Z" fill="#131E2E"/>
<path d="M150.334 152.849C150.334 159.193 149.389 165.698 147.665 171.965C127.262 190.217 95.3204 189.573 71.141 171.946C69.4192 165.686 68.4772 159.186 68.4772 152.849C68.4772 124.903 86.8011 120.32 109.406 120.32C132.01 120.32 150.334 124.903 150.334 152.849Z" fill="url(#paint2_linear_505_11165)"/>
<path d="M147.376 172.181C141.548 193.489 126.748 212.039 109.406 212.039C92.0646 212.039 77.2564 193.481 71.4363 172.162C72.3212 172.125 73.2038 172.045 74.0841 171.921C80.806 170.955 86.9883 167.611 91.5637 162.467C94.4928 159.152 96.6676 155.18 99.7204 151.984C99.745 151.957 99.7705 151.931 99.7959 151.905C104.908 146.611 113.264 146.611 118.377 151.905L118.453 151.984C121.504 155.18 123.68 159.152 126.609 162.467C131.184 167.611 137.366 170.955 144.088 171.921C145.178 172.074 146.276 172.161 147.376 172.181Z" fill="url(#paint3_linear_505_11165)"/>
<path d="M110.717 170.617C118.88 170.617 125.497 163.994 125.497 155.824C125.497 147.654 118.88 141.03 110.717 141.03C102.554 141.03 95.9369 147.654 95.9369 155.824C95.9369 163.994 102.554 170.617 110.717 170.617Z" fill="url(#paint4_linear_505_11165)"/>
<path d="M110.717 167.654C117.245 167.654 122.537 162.357 122.537 155.823C122.537 149.289 117.245 143.991 110.717 143.991C104.188 143.991 98.8961 149.289 98.8961 155.823C98.8961 162.357 104.188 167.654 110.717 167.654Z" fill="url(#paint5_radial_505_11165)"/>
<path opacity="0.1" d="M122.538 155.824C122.538 156.203 122.52 156.578 122.483 156.947C122.205 154.016 120.846 151.294 118.67 149.313C116.494 147.332 113.658 146.234 110.716 146.234C107.775 146.234 104.939 147.332 102.763 149.313C100.587 151.294 99.2274 154.016 98.9497 156.947C98.9129 156.578 98.8951 156.203 98.8951 155.824C98.9263 152.706 100.185 149.727 102.399 147.534C104.613 145.34 107.602 144.11 110.716 144.11C113.831 144.11 116.82 145.34 119.034 147.534C121.247 149.727 122.506 152.706 122.538 155.824Z" fill="#131E2E"/>
<path d="M21.2185 85.0651C9.49932 85.0651 0 75.0785 0 62.7396C0 50.4007 9.49932 40.4141 21.2185 40.4141V85.0651Z" fill="url(#paint6_linear_505_11165)"/>
<path d="M201.217 85.0651C212.936 85.0651 222.435 75.0702 222.435 62.7396C222.435 50.409 212.938 40.4141 201.217 40.4141V85.0651Z" fill="url(#paint7_linear_505_11165)"/>
<path d="M206.89 67.1185C206.89 113.792 164.034 125.482 111.171 125.482C58.3083 125.482 15.4524 113.792 15.4524 67.1185V58.3698C15.4524 11.6934 58.3083 0 111.171 0C164.034 0 206.89 11.6934 206.89 58.3632V67.1185Z" fill="url(#paint8_linear_505_11165)"/>
<path d="M187.341 72.4375C187.341 98.3252 153.259 104.809 111.219 104.809C69.18 104.809 35.0962 98.3301 35.0962 72.4375V67.5861C35.0962 41.6984 69.1783 35.2146 111.219 35.2146C153.261 35.2146 187.341 41.6984 187.341 67.5861V72.4375Z" fill="url(#paint9_linear_505_11165)"/>
<path opacity="0.76" d="M187.339 67.5861V72.4375C187.339 72.7263 187.339 73.0136 187.326 73.2975C186.581 48.1229 152.791 41.7843 111.219 41.7843C69.6484 41.7843 35.8515 48.1229 35.1111 73.2975C35.1012 73.0136 35.0962 72.7263 35.0962 72.4375V67.5861C35.0962 41.6984 69.1767 35.2146 111.219 35.2146C153.262 35.2146 187.339 41.6984 187.339 67.5861Z" fill="#070115"/>
<path d="M153.866 3.52256C149.297 7.93154 146.279 13.8839 144.866 21.5447C144.644 22.7187 144.019 23.7779 143.099 24.5389C142.179 25.2998 141.021 25.7145 139.828 25.7111H82.5151C81.3212 25.7149 80.1635 25.3004 79.243 24.5394C78.3224 23.7784 77.697 22.7189 77.4752 21.5447C76.0684 13.8839 73.0454 7.93154 68.4772 3.52586C81.3293 0.983808 95.829 0 111.171 0C126.514 0 141.022 0.983807 153.866 3.52256Z" fill="url(#paint10_radial_505_11165)"/>
<path d="M153.866 3.52243C149.297 7.93141 146.279 13.8838 144.866 21.5446C144.644 22.7185 144.019 23.7778 143.099 24.5387C142.179 25.2997 141.021 25.7144 139.828 25.7109H82.5151C81.3212 25.7148 80.1635 25.3003 79.243 24.5393C78.3224 23.7783 77.697 22.7188 77.4752 21.5446C76.0684 13.8838 73.0454 7.93141 68.4772 3.52574C74.6402 7.19025 78.2387 10.3034 79.5581 17.4922C79.7668 18.5939 80.3542 19.5878 81.2185 20.3015C82.0827 21.0152 83.1692 21.4036 84.2896 21.3993H138.053C139.173 21.4031 140.259 21.0145 141.123 20.3008C141.986 19.5872 142.573 18.5935 142.781 17.4922C144.104 10.3034 147.841 5.47684 153.866 3.52243Z" fill="url(#paint11_linear_505_11165)"/>
<path opacity="0.63" d="M112.53 267.697C141.453 267.697 164.899 263.406 164.899 258.113C164.899 252.82 141.453 248.529 112.53 248.529C83.6064 248.529 60.1596 252.82 60.1596 258.113C60.1596 263.406 83.6064 267.697 112.53 267.697Z" fill="url(#paint12_radial_505_11165)"/>
<rect x="95.0632" y="77.9121" width="11.8347" height="17.7521" rx="4" fill="#D9D9D9"/>
<rect x="120.705" y="77.9121" width="11.8347" height="17.7521" rx="4" fill="#D9D9D9"/>
<rect x="95.0632" y="77.9121" width="11.8347" height="17.7521" rx="4" fill="#D9D9D9"/>
<rect x="120.705" y="77.9121" width="11.8347" height="17.7521" rx="4" fill="#D9D9D9"/>
<path d="M172.542 124.55H165.038V143.729C168.142 141.855 170.723 139.229 172.542 136.092V124.55ZM106.058 164.18C105.717 164.525 105.526 164.99 105.526 165.474C105.526 165.959 105.717 166.424 106.058 166.769L112.333 173.045C112.678 173.385 113.143 173.576 113.628 173.576C114.113 173.576 114.578 173.385 114.923 173.045L130.459 157.509C130.467 157.501 130.476 157.492 130.484 157.483C130.557 157.41 130.587 157.319 130.641 157.242C137.367 162.152 145.479 164.797 153.806 164.794C175.618 164.794 193.301 147.112 193.301 125.296C193.301 103.481 175.618 85.8019 153.803 85.8019C131.987 85.8019 114.308 103.485 114.308 125.3C114.308 133.964 117.132 141.951 121.864 148.461C121.773 148.523 121.674 148.563 121.593 148.644L106.058 164.18ZM124.446 125.296C124.455 119.503 126.181 113.842 129.406 109.029C132.63 104.216 137.209 100.466 142.563 98.2533C147.917 96.0406 153.807 95.4642 159.489 96.5967C165.171 97.7293 170.389 100.52 174.486 104.617C178.582 108.713 181.373 113.932 182.506 119.614C183.638 125.295 183.062 131.185 180.849 136.539C178.636 141.894 174.887 146.472 170.074 149.697C165.26 152.921 159.6 154.647 153.806 154.656H153.718C149.869 154.651 146.058 153.887 142.503 152.408C138.948 150.929 135.72 148.765 133.002 146.039C130.283 143.312 128.129 140.077 126.661 136.518C125.193 132.959 124.44 129.146 124.446 125.296ZM142.22 143.509C139.1 141.518 136.533 138.771 134.759 135.522V129.07H142.22V143.509ZM158.678 146.976C157.061 147.185 155.434 147.269 153.806 147.24C152.343 147.331 150.88 147.331 149.418 147.24V113.933H158.674V146.976H158.678Z" fill="url(#paint13_radial_505_11165)"/>
<path d="M80.8347 153.901C86.6618 154.25 92.1418 155.371 97.0504 156.83C97.5191 156.969 97.9824 157.111 98.4402 157.257C107.268 160.053 114.087 163.857 117.497 165.976C123.399 169.644 122.635 173.939 111.064 174.875C102.133 175.6 91.9061 175.102 82.7177 173.62C82.3711 173.565 82.0252 173.507 81.68 173.446C81.105 173.346 80.5322 173.239 79.9615 173.126C72.9269 171.738 66.369 169.418 61.9136 166.075C60.6741 165.151 59.8763 164.016 59.6088 162.795C58.9516 159.732 61.8661 156.718 66.7739 155.396C71.1341 154.221 76.1021 153.617 80.8347 153.901Z" fill="url(#paint14_linear_505_11165)"/>
<path opacity="0.1" d="M97.0499 156.805C97.515 156.948 97.9748 157.093 98.4292 157.242C95.2898 163.579 89.734 169.088 81.8208 173.705C81.2502 173.602 80.6817 173.493 80.1154 173.377C84.6518 170.807 88.4391 167.939 91.4149 164.817C93.8014 162.301 95.6952 159.608 97.0499 156.805Z" fill="#131E2E"/>
<defs>
<linearGradient id="paint0_linear_505_11165" x1="16.4229" y1="60.9699" x2="25.4092" y2="286.318" gradientUnits="userSpaceOnUse">
<stop stop-color="#D1B4E3"/>
<stop offset="1" stop-color="#A56EF4"/>
</linearGradient>
<linearGradient id="paint1_linear_505_11165" x1="166.65" y1="153.757" x2="153.472" y2="161.437" gradientUnits="userSpaceOnUse">
<stop stop-color="#E6E6E6"/>
<stop offset="1" stop-color="#A5B0B5"/>
</linearGradient>
<linearGradient id="paint2_linear_505_11165" x1="109.406" y1="164.285" x2="109.406" y2="129.781" gradientUnits="userSpaceOnUse">
<stop stop-color="#E6E6E6"/>
<stop offset="1" stop-color="#A5B0B5"/>
</linearGradient>
<linearGradient id="paint3_linear_505_11165" x1="109.406" y1="192.335" x2="109.406" y2="151.669" gradientUnits="userSpaceOnUse">
<stop stop-color="#E6E6E6"/>
<stop offset="1" stop-color="#A5B0B5"/>
</linearGradient>
<linearGradient id="paint4_linear_505_11165" x1="100.599" y1="146.281" x2="120.862" y2="165.358" gradientUnits="userSpaceOnUse">
<stop stop-color="#E6E6E6"/>
<stop offset="0.2" stop-color="#A5B0B5"/>
<stop offset="0.37" stop-color="#CCD1D3"/>
<stop offset="0.57" stop-color="#B5BEC2"/>
<stop offset="0.74" stop-color="white"/>
<stop offset="1" stop-color="#A5B0B5"/>
</linearGradient>
<radialGradient id="paint5_radial_505_11165" cx="0" cy="0" r="1" gradientUnits="userSpaceOnUse" gradientTransform="translate(110.717 160.861) scale(13.9503 16.2449)">
<stop stop-color="#DACEFF"/>
<stop offset="1" stop-color="#3700D4"/>
</radialGradient>
<linearGradient id="paint6_linear_505_11165" x1="0" y1="62.7396" x2="21.2185" y2="62.7396" gradientUnits="userSpaceOnUse">
<stop stop-color="#E6E6E6"/>
<stop offset="1" stop-color="#A5B0B5"/>
</linearGradient>
<linearGradient id="paint7_linear_505_11165" x1="201.218" y1="62.7396" x2="222.437" y2="62.7396" gradientUnits="userSpaceOnUse">
<stop stop-color="#E6E6E6"/>
<stop offset="1" stop-color="#A5B0B5"/>
</linearGradient>
<linearGradient id="paint8_linear_505_11165" x1="15.4524" y1="62.7408" x2="206.89" y2="62.7408" gradientUnits="userSpaceOnUse">
<stop stop-color="#E6E6E6"/>
<stop offset="1" stop-color="#A5B0B5"/>
</linearGradient>
<linearGradient id="paint9_linear_505_11165" x1="111.219" y1="43.0669" x2="111.219" y2="100.587" gradientUnits="userSpaceOnUse">
<stop stop-color="#303259"/>
<stop offset="1" stop-color="#1A132E"/>
</linearGradient>
<radialGradient id="paint10_radial_505_11165" cx="0" cy="0" r="1" gradientUnits="userSpaceOnUse" gradientTransform="translate(111.171 18.33) scale(50.386 17.6511)">
<stop stop-color="#DACEFF"/>
<stop offset="1" stop-color="#3700D4"/>
</radialGradient>
<linearGradient id="paint11_linear_505_11165" x1="111.171" y1="5.37615" x2="111.171" y2="25.3313" gradientUnits="userSpaceOnUse">
<stop stop-color="#5792AD" stop-opacity="0"/>
<stop offset="1" stop-color="#3400A4"/>
</linearGradient>
<radialGradient id="paint12_radial_505_11165" cx="0" cy="0" r="1" gradientUnits="userSpaceOnUse" gradientTransform="translate(112.53 257.835) scale(50.0133 8.00938)">
<stop stop-color="#28007E"/>
<stop offset="0.92" stop-color="#7241FF" stop-opacity="0"/>
</radialGradient>
<radialGradient id="paint13_radial_505_11165" cx="0" cy="0" r="1" gradientUnits="userSpaceOnUse" gradientTransform="translate(149.631 128.854) rotate(-89.1602) scale(44.4681 43.4726)">
<stop stop-color="#5599FF"/>
<stop offset="0.836794" stop-color="#7241FF"/>
<stop offset="1" stop-color="#8E66FF"/>
</radialGradient>
<linearGradient id="paint14_linear_505_11165" x1="90.571" y1="171.671" x2="89.8512" y2="156.235" gradientUnits="userSpaceOnUse">
<stop stop-color="#E6E6E6"/>
<stop offset="1" stop-color="#A5B0B5"/>
</linearGradient>
</defs>
</svg>
