<svg width="72" height="72" viewBox="0 0 72 72" fill="none" xmlns="http://www.w3.org/2000/svg">
<path d="M37.6473 6.77976C36.8642 6.26094 35.9433 5.98928 35.004 5.99998C34.0647 6.01067 33.1503 6.30324 32.3793 6.83976L8.7843 23.2797C7.5243 24.1557 6.7743 25.5897 6.7743 27.1257V44.8347C6.7743 46.4097 7.5663 47.8767 8.8803 48.7437L32.8623 64.5987C33.6289 65.1056 34.5277 65.3758 35.4468 65.3758C36.3658 65.3758 37.2646 65.1056 38.0313 64.5987L62.4902 48.4407C63.8042 47.5707 64.5932 46.1007 64.5932 44.5287V27.1287C64.5932 25.5567 63.8042 24.0897 62.4932 23.2197L37.6473 6.77976ZM55.9172 25.9587L46.8752 32.0277L38.3973 25.8627L38.3433 13.7368L55.9142 25.9587H55.9172ZM32.2113 13.7488V25.6197L23.5203 31.6917L14.8593 25.8807L32.2113 13.7488ZM12.4803 31.7277L18.0903 35.4867L12.4803 39.4107V31.7307V31.7277ZM32.3553 57.0267L14.8623 45.2997L23.6013 39.1887L32.3613 45.0627V57.0327L32.3553 57.0267ZM29.0403 35.3877L34.7043 31.4277L41.3042 35.7627L35.4543 39.6927L29.0403 35.3877ZM38.5413 57.0267V45.0567L46.9112 39.4467L55.9202 45.3717L38.5413 57.0267ZM58.4162 39.6117L52.4762 35.7117L58.4162 31.7247V39.6147V39.6117Z" fill="#F1F5F9"/>
</svg>
