<svg width="146" height="135" viewBox="0 0 146 135" fill="none" xmlns="http://www.w3.org/2000/svg">
<path d="M5.95384 35.1416C-1.28418 29.1297 -2.02808 18.0886 4.30172 10.4678C10.6315 2.847 21.6216 1.55214 28.8597 7.56401L5.95384 35.1416Z" fill="url(#paint0_linear_510_1994)"/>
<path d="M117.126 127.481C124.364 133.493 135.358 132.193 141.684 124.577C148.01 116.962 147.271 105.916 140.032 99.9036L117.126 127.481Z" fill="url(#paint1_linear_510_1994)"/>
<path d="M129.837 119.306C105.894 148.133 73.4281 133.368 40.7786 106.25C8.12903 79.131 -12.3427 49.9259 11.6004 21.0995L16.0884 15.6961C40.0333 -13.1323 72.5008 1.63039 105.15 28.749C137.8 55.8676 158.27 85.0746 134.328 113.899L129.837 119.306Z" fill="url(#paint2_linear_510_1994)"/>
<path d="M115.034 112.564C101.753 128.553 77.3773 115.073 51.4127 93.507C25.4481 71.9409 7.72083 50.4545 21.0037 34.4626L23.4924 31.4662C36.7727 15.4774 61.1489 28.9568 87.1145 50.5237C113.08 72.0907 130.803 93.5785 117.522 109.567L115.034 112.564Z" fill="url(#paint3_linear_510_1994)"/>
<path opacity="0.76" d="M117.521 109.566L115.033 112.563C114.885 112.741 114.737 112.919 114.583 113.087C127.038 97.1564 109.42 75.9072 83.7442 54.5814C58.0689 33.2555 33.9435 19.8328 20.5717 35.0013C20.7112 34.8209 20.8555 34.641 21.0037 34.4626L23.4924 31.4662C36.7727 15.4774 61.1479 28.9559 87.1145 50.5238C113.081 72.0916 130.802 93.5776 117.521 109.566Z" fill="#070115"/>
<path d="M129.712 52.827C124.629 53.2066 119.711 55.3347 114.908 59.3412C114.169 59.9525 113.239 60.286 112.281 60.2839C111.322 60.2818 110.395 59.9443 109.659 59.3298L74.2614 29.9286C73.5221 29.3185 73.0197 28.4687 72.8416 27.5264C72.6634 26.5842 72.8206 25.609 73.286 24.7699C76.3471 19.3168 77.5336 14.0897 76.9722 9.02512C86.2141 14.0482 95.6741 20.8788 105.15 28.7494C114.626 36.62 123.082 44.6702 129.712 52.827Z" fill="url(#paint4_radial_510_1994)"/>
<path d="M129.712 52.8266C124.628 53.2062 119.711 55.3343 114.908 59.3408C114.169 59.952 113.239 60.2855 112.281 60.2834C111.322 60.2814 110.394 59.9438 109.659 59.3294L74.2612 29.9282C73.5219 29.3181 73.0195 28.4682 72.8414 27.526C72.6632 26.5837 72.8204 25.6085 73.2858 24.7695C76.3469 19.3163 77.5334 14.0892 76.972 9.02468C78.8986 14.4496 79.524 18.2184 76.6511 23.3352C76.2148 24.1227 76.0678 25.0379 76.2354 25.922C76.4031 26.8062 76.8749 27.6034 77.5691 28.1756L110.775 55.7561C111.464 56.3329 112.335 56.65 113.234 56.6522C114.133 56.6545 115.006 56.3419 115.699 55.7685C120.204 52.0071 124.988 50.9432 129.712 52.8266Z" fill="url(#paint5_linear_510_1994)"/>
<rect x="45.9214" y="37.1962" width="12.6693" height="6.33463" rx="3.16108" transform="rotate(39.7129 45.9214 37.1962)" fill="#D9D9D9"/>
<rect x="67.2402" y="54.9039" width="12.6693" height="6.33463" rx="3.16108" transform="rotate(39.7129 67.2402 54.9039)" fill="#D9D9D9"/>
<path d="M122.284 13.7158L120.095 13.9184L120.613 19.5138C121.468 18.8834 122.15 18.0474 122.596 17.0832L122.284 13.7158ZM103.957 27.0729C103.867 27.1827 103.824 27.3236 103.837 27.465C103.85 27.6064 103.918 27.7369 104.027 27.8283L106.027 29.4899C106.137 29.5799 106.278 29.623 106.419 29.6099C106.561 29.5968 106.691 29.5286 106.783 29.42L110.896 24.4679C110.898 24.4652 110.901 24.4625 110.903 24.4597C110.922 24.4364 110.928 24.4089 110.942 24.385C113.037 25.636 115.475 26.1886 117.904 25.963C124.268 25.3741 128.95 19.7377 128.361 13.373C127.772 7.00825 122.135 2.32773 115.771 2.91672C109.406 3.50571 104.725 9.14203 105.314 15.5067C105.548 18.0345 106.588 20.2886 108.144 22.0601C108.119 22.0807 108.091 22.0951 108.07 22.1208L103.957 27.0729ZM108.272 15.232C108.118 13.5415 108.469 11.8433 109.28 10.352C110.091 8.86068 111.325 7.64308 112.828 6.85295C114.33 6.06283 116.033 5.73562 117.721 5.91264C119.409 6.08967 121.007 6.763 122.313 7.84759C123.619 8.93218 124.574 10.3794 125.058 12.0065C125.542 13.6335 125.532 15.3675 125.031 16.9894C124.53 18.6112 123.56 20.0483 122.243 21.119C120.926 22.1897 119.321 22.8461 117.631 23.0052L117.605 23.0076C116.482 23.1099 115.349 22.9899 114.272 22.6545C113.195 22.319 112.195 21.7748 111.328 21.0527C110.462 20.3307 109.746 19.445 109.221 18.4463C108.697 17.4476 108.374 16.3553 108.272 15.232ZM113.949 20.0658C112.985 19.5692 112.162 18.8369 111.557 17.9369L111.383 16.0547L113.56 15.8532L113.949 20.0658ZM118.845 20.633C118.379 20.7375 117.906 20.8059 117.431 20.8413C117.006 20.9075 116.579 20.947 116.15 20.9598L115.251 11.2426L117.951 10.9927L118.844 20.6331L118.845 20.633Z" fill="url(#paint6_radial_510_1994)"/>
<path d="M16.3942 85.4457C19.3076 81.7743 22.5682 78.6864 25.7886 76.1302C26.096 75.886 26.4029 75.6468 26.7093 75.4127C32.6144 70.8948 38.2565 68.1624 41.2203 66.8957C46.3511 64.7034 48.8236 67.1837 44.1104 75.225C40.4736 81.432 35.4361 87.9287 30.2294 93.2888C30.0338 93.4915 29.8364 93.6923 29.637 93.891C29.3065 94.2232 28.9726 94.5509 28.6354 94.874C24.4826 98.8611 19.9368 102.106 15.6859 103.496C14.5079 103.886 13.394 103.888 12.4679 103.501C10.1504 102.523 9.51087 99.218 10.9015 95.3814C12.1367 91.9726 14.0277 88.4272 16.3942 85.4457Z" fill="url(#paint7_linear_510_1994)"/>
<path opacity="0.1" d="M25.7724 76.119C26.0802 75.8786 26.3876 75.6432 26.6945 75.4128C29.4163 80.396 30.481 86.5874 29.8726 93.9177C29.5425 94.2458 29.2089 94.5694 28.8719 94.8884C29.271 90.7215 29.1289 86.9096 28.4462 83.5148C27.8906 80.7865 26.992 78.3009 25.7724 76.119Z" fill="#131E2E"/>
<defs>
<linearGradient id="paint0_linear_510_1994" x1="4.30172" y1="10.4678" x2="17.4068" y2="21.3528" gradientUnits="userSpaceOnUse">
<stop stop-color="#E6E6E6"/>
<stop offset="1" stop-color="#A5B0B5"/>
</linearGradient>
<linearGradient id="paint1_linear_510_1994" x1="128.58" y1="113.693" x2="141.685" y2="124.578" gradientUnits="userSpaceOnUse">
<stop stop-color="#E6E6E6"/>
<stop offset="1" stop-color="#A5B0B5"/>
</linearGradient>
<linearGradient id="paint2_linear_510_1994" x1="13.8461" y1="18.3958" x2="132.083" y2="116.603" gradientUnits="userSpaceOnUse">
<stop stop-color="#E6E6E6"/>
<stop offset="1" stop-color="#A5B0B5"/>
</linearGradient>
<linearGradient id="paint3_linear_510_1994" x1="83.0863" y1="55.3735" x2="53.5788" y2="90.8991" gradientUnits="userSpaceOnUse">
<stop stop-color="#303259"/>
<stop offset="1" stop-color="#1A132E"/>
</linearGradient>
<radialGradient id="paint4_radial_510_1994" cx="0" cy="0" r="1" gradientUnits="userSpaceOnUse" gradientTransform="translate(95.7467 40.0705) rotate(39.7129) scale(40.4542 14.1718)">
<stop stop-color="#DACEFF"/>
<stop offset="1" stop-color="#3700D4"/>
</radialGradient>
<linearGradient id="paint5_linear_510_1994" x1="102.392" y1="32.0695" x2="92.1548" y2="44.3943" gradientUnits="userSpaceOnUse">
<stop stop-color="#5792AD" stop-opacity="0"/>
<stop offset="1" stop-color="#3400A4"/>
</linearGradient>
<radialGradient id="paint6_radial_510_1994" cx="0" cy="0" r="1" gradientUnits="userSpaceOnUse" gradientTransform="translate(116.18 21.2921) rotate(174.713) scale(15.1757 17.6558)">
<stop stop-color="#DACEFF"/>
<stop offset="1" stop-color="#3700D4"/>
</radialGradient>
<linearGradient id="paint7_linear_510_1994" x1="32.5648" y1="87.2265" x2="22.0817" y2="80.5908" gradientUnits="userSpaceOnUse">
<stop stop-color="#E6E6E6"/>
<stop offset="1" stop-color="#A5B0B5"/>
</linearGradient>
</defs>
</svg>
