<svg width="24" height="24" viewBox="0 0 24 24" fill="none" xmlns="http://www.w3.org/2000/svg">
<path d="M5.67594 10.5949H7.72792V15.8388C6.87916 15.3266 6.17338 14.6084 5.67594 13.7509V10.5949ZM23.8547 21.4308C23.9478 21.5251 24 21.6523 24 21.7848C24 21.9173 23.9478 22.0445 23.8547 22.1388L22.1388 23.8547C22.0445 23.9478 21.9173 24 21.7848 24C21.6523 24 21.5251 23.9478 21.4308 23.8547L17.1828 19.6068C17.1804 19.6045 17.1781 19.6022 17.1758 19.5998C17.1558 19.5798 17.1478 19.5548 17.1328 19.5338C15.2939 20.8764 13.0758 21.5995 10.7989 21.5988C4.83495 21.5988 0 16.7638 0 10.7989C0 4.83395 4.83495 0 10.7999 0C16.7648 0 21.5988 4.83495 21.5988 10.7999C21.5988 13.1689 20.8268 15.3528 19.5328 17.1328C19.5578 17.1498 19.5848 17.1608 19.6068 17.1828L23.8547 21.4308ZM18.8268 10.7989C18.8242 9.2148 18.3523 7.66699 17.4706 6.35094C16.589 5.03489 15.3371 4.00961 13.8731 3.40459C12.4091 2.79958 10.7986 2.64195 9.24508 2.95162C7.69155 3.26129 6.26462 4.02437 5.1445 5.1445C4.02437 6.26462 3.26129 7.69155 2.95162 9.24508C2.64195 10.7986 2.79958 12.4091 3.40459 13.8731C4.00961 15.3371 5.03489 16.589 6.35094 17.4706C7.66699 18.3523 9.2148 18.8242 10.7989 18.8268H10.8229C11.8756 18.8252 12.9176 18.6163 13.8895 18.212C14.8615 17.8077 15.7443 17.216 16.4875 16.4705C17.2307 15.7251 17.8198 14.8405 18.2212 13.8674C18.6226 12.8942 18.8284 11.8516 18.8268 10.7989ZM13.9669 15.7788C14.8201 15.2345 15.5219 14.4832 16.0068 13.5949V11.8309H13.9669V15.7788ZM9.4669 16.7268C9.9089 16.7838 10.3539 16.8068 10.7989 16.7988C11.1989 16.8238 11.5989 16.8238 11.9989 16.7988V7.69192H9.4679V16.7268H9.4669Z" fill="white"/>
</svg>
