<svg width="58" height="58" viewBox="0 0 58 58" fill="none" xmlns="http://www.w3.org/2000/svg">
<path d="M36.25 37.4581C35.6091 37.4581 34.9944 37.2034 34.5412 36.7502C34.088 36.297 33.8333 35.6823 33.8333 35.0414C33.8333 34.4004 34.088 33.7858 34.5412 33.3325C34.9944 32.8793 35.6091 32.6247 36.25 32.6247C38.4322 32.6237 40.5734 32.0318 42.4462 30.9118C44.319 29.7918 45.8536 28.1855 46.887 26.2635C47.9204 24.3415 48.414 22.1756 48.3155 19.9956C48.2169 17.8157 47.5299 15.7031 46.3273 13.8822C45.1247 12.0613 43.4514 10.6001 41.4851 9.65363C39.5189 8.70719 37.333 8.31089 35.1597 8.50679C32.9863 8.7027 30.9065 9.4835 29.1412 10.7663C27.3759 12.0491 25.9909 13.786 25.1333 15.7926L23.3933 19.8671L19.1835 18.4848C18.1873 18.1585 17.1321 18.0522 16.0909 18.1731C15.0496 18.294 14.0469 18.6393 13.1519 19.1851C12.257 19.7309 11.4911 20.4644 10.9069 21.3348C10.3228 22.2053 9.93437 23.192 9.76844 24.2271C9.6025 25.2621 9.663 26.3209 9.94576 27.3303C10.2285 28.3397 10.7268 29.2758 11.4063 30.0741C12.0858 30.8723 12.9303 31.5137 13.8816 31.9541C14.8329 32.3944 15.8684 32.6232 16.9166 32.6247H21.75C22.3909 32.6247 23.0056 32.8793 23.4588 33.3325C23.912 33.7858 24.1666 34.4004 24.1666 35.0414C24.1666 35.6823 23.912 36.297 23.4588 36.7502C23.0056 37.2034 22.3909 37.4581 21.75 37.4581H16.9166C15.1688 37.4571 13.4421 37.0769 11.8554 36.3439C10.2688 35.6108 8.86007 34.5423 7.72644 33.212C6.59281 31.8817 5.76127 30.3213 5.28918 28.6385C4.81708 26.9557 4.71568 25.1905 4.99196 23.4646C5.26824 21.7388 5.91563 20.0935 6.88946 18.6421C7.86329 17.1908 9.14039 15.9679 10.6326 15.058C12.1249 14.1481 13.7968 13.5727 15.533 13.3716C17.2692 13.1705 19.0283 13.3484 20.6891 13.8931C22.2226 10.3107 24.9456 7.36737 28.3981 5.56028C31.8506 3.75318 35.821 3.19308 39.6387 3.97457C43.4564 4.75606 46.8873 6.83124 49.352 9.8496C51.8168 12.868 53.1642 16.6445 53.1667 20.5414C53.1667 25.0279 51.3844 29.3308 48.2119 32.5033C45.0394 35.6758 40.7366 37.4581 36.25 37.4581ZM30.7158 30.3627C31.9701 30.8412 32.6177 32.2985 32.161 33.6155L28.855 43.1614C28.3958 44.4785 27.0111 45.1576 25.7568 44.6767C24.5026 44.1982 23.8573 42.7409 24.3141 41.4238L27.6201 31.878C28.0744 30.5609 29.4616 29.8818 30.7158 30.3627ZM34.6598 39.9061C35.9141 40.3846 36.5593 41.8419 36.1026 43.159L32.7966 52.7048C32.3423 54.0219 30.9551 54.701 29.7008 54.2201C28.4466 53.7416 27.7989 52.2843 28.2557 50.9673L31.5617 41.4214C32.0208 40.1043 33.4056 39.4252 34.6598 39.9061ZM26.5833 39.7515H33.8333C35.1673 39.7515 36.25 40.8873 36.25 42.2914C36.25 43.6931 35.1673 44.8289 33.8333 44.8289H26.5833C25.2493 44.8289 24.1666 43.6931 24.1666 42.2914C24.1666 40.8897 25.2493 39.7539 26.5833 39.7539V39.7515Z" fill="#E2E8F0"/>
</svg>
